# xmcd
# 
# Track frame offsets:
#     150
#     11959
#     20867
#     37500
#     48643
#     63225
#     76808
#     85717
#     99720
#     103404
#     116153
#     137159
#     148291
#     162262
# 
# Disc length: 2398
# 
# Revision: 1
# Processed by: cddbd v1.5.2PL0 Copyright (c) Steve Scherf et al.
# Submitted via: fre:ac v1.0.17
# 
DISCID=c2095c0e
DTITLE=Artur Andrus - Myśliwiecka
DYEAR=2012
DGENRE=Easy Listening
TTITLE0=Piłem w spale, spałem w Pile
TTITLE1=Ballada o Baronie, Niedźwiedziu u Czarnej Helenie
TTITLE2=Duś, duś gołąbki
TTITLE3=Dam ci ptaszka
TTITLE4=Życie jest dziwne
TTITLE5=Ballada o wyważonym koniu księcia Józefa
TTITLE6=Czarna Helena po roku
TTITLE7=Manifest niełatwej rezygnacji
TTITLE8=Wiersz o tym, że każdy prawdziwy mężczyzna
TTITLE9=Piosenka o podrywie na misia
TTITLE10=Królowa nadbałtyckich raf
TTITLE11=Petersburg
TTITLE12=Cieszyńska
TTITLE13=Glanki i pacyfki
EXTD=
EXTT0=
EXTT1=
EXTT2=
EXTT3=
EXTT4=
EXTT5=
EXTT6=
EXTT7=
EXTT8=
EXTT9=
EXTT10=
EXTT11=
EXTT12=
EXTT13=
PLAYORDER=
